<svg xmlns="http://www.w3.org/2000/svg" width="662" height="248" style="
        width:662px;
        height:248px;
        background: transparent;
        fill: none;
">
        
        <svg xmlns="http://www.w3.org/2000/svg" class="role-diagram-draw-area"><g class="shapes-region" style="stroke: black; fill: none;"><g class="arrow-line"><path class="connection real" stroke-dasharray="" d="  M118.64,193.05 L213.63,74.84" style="stroke: rgb(74, 144, 226); stroke-width: 3; fill: none;"/><g stroke="none" fill="rgba(74,144,226,1)" transform="matrix(-0.62633173292562,0.7795566434393268,-0.7795566434393268,-0.62633173292562,216.1312918340744,71.71770195352134)" style="stroke: none; fill: rgb(74, 144, 226); stroke-width: 3;"><path d=" M16.07,-7.72 L0,0 L16.07,7.72 L10.67,0 Z"/></g></g><g class="arrow-line"><path class="connection real" stroke-dasharray="" d="  M118.64,193.05 L327.14,160.12" style="stroke: rgb(0, 0, 0); stroke-width: 3; fill: none;"/></g><g class="arrow-line"><path class="connection real" stroke-dasharray="6 6" d="  M77.5,111 C102.73,141.73 125.77,120.9 165.56,131.86" style="stroke: rgb(128, 128, 128); stroke-width: 1; fill: none;"/><g stroke="none" fill="rgba(128,128,128,1)" transform="matrix(-0.9587205363977429,-0.2843500186200523,0.2843500186200523,-0.9587205363977429,167.3865727788883,132.38528328693033)" style="stroke: none; fill: rgb(128, 128, 128); stroke-width: 1;"><path d=" M8.93,-4.29 L0,0 L8.93,4.29 Z"/></g></g><g class="arrow-line"><path class="connection real" stroke-dasharray="" d="  M327.14,160.12 L422.13,41.9" style="stroke: rgb(74, 144, 226); stroke-width: 3; fill: none;"/><g stroke="none" fill="rgba(74,144,226,1)" transform="matrix(-0.62633173292562,0.7795566434393268,-0.7795566434393268,-0.62633173292562,424.63060107742484,38.78387208681363)" style="stroke: none; fill: rgb(74, 144, 226); stroke-width: 3;"><path d=" M16.07,-7.72 L0,0 L16.07,7.72 L10.67,0 Z"/></g></g><g class="arrow-line"><path class="connection real" stroke-dasharray="" d="  M216.13,71.72 L424.63,38.78" style="stroke: rgb(0, 0, 0); stroke-width: 3; fill: none;"/></g><g/></g><g/><g/><!-- react-empty: 2500 --></svg>
        <svg xmlns="http://www.w3.org/2000/svg" width="660" height="246" style="width:660px;height:246px;font-family:Asana-Math, Asana;background:transparent;"><g><g><g><g><g><g style="transform:matrix(1,0,0,1,180.1171875,49.5390625);"><path d="M413 469L254 104C251 113 166 397 166 405C166 420 179 428 204 429L244 431L244 459C145 456 145 456 125 456C105 456 105 456 6 459L6 431L34 429C62 427 75 407 100 329L202 -7L249 -7L399 335L535 -7L581 -7L718 342C748 409 760 426 782 429L808 431L808 459C726 456 726 456 710 456C694 456 694 456 612 459L612 431L646 429C671 428 685 416 685 398L580 98L465 388C451 422 444 442 436 469Z" stroke="rgb(0, 0, 0)" stroke-width="24" fill="rgb(0, 0, 0)" style="transform:matrix(0.017,0,0,-0.017,0,0);"></path></g><g><g><g><g style="transform:matrix(1,0,0,1,194.2734375,54.9234375);"><path d="M240 722L228 733C176 707 140 698 68 691L64 670L112 670C136 670 146 663 146 646C146 638 145 629 144 622L96 354C82 279 66 210 14 1L23 -9L90 8L113 132C122 180 146 225 180 259C249 59 281 -9 306 -9C319 -9 343 4 387 35L433 67L425 86L382 62C368 54 361 52 353 52C343 52 336 58 327 75C292 139 270 193 231 316L245 330C306 391 352 416 402 416C410 416 421 414 438 410L455 473C437 479 419 482 407 482C341 482 258 405 133 230ZM502 388L509 368L541 389C578 412 581 414 588 414C598 414 606 404 606 391C606 384 602 361 598 347L532 107C524 76 519 49 519 30C519 6 530 -9 549 -9C575 -9 611 12 709 85L699 103L673 86C644 67 621 56 612 56C605 56 599 66 599 76C599 86 601 95 606 116L683 420C687 437 689 448 689 456C689 473 680 482 664 482C642 482 605 461 530 408ZM696 712C667 712 638 679 638 645C638 620 653 604 677 604C708 604 732 633 732 671C732 695 717 712 696 712ZM769 388L776 368L808 389C845 412 848 414 855 414C866 414 873 404 873 389C873 338 832 145 791 2L798 -9C823 -2 846 4 868 8C887 134 908 199 954 268C1008 352 1083 414 1128 414C1139 414 1145 405 1145 390C1145 372 1142 351 1134 319L1082 107C1073 70 1069 47 1069 31C1069 6 1080 -9 1099 -9C1125 -9 1161 12 1259 85L1249 103L1223 86C1194 67 1172 56 1162 56C1155 56 1149 65 1149 76C1149 81 1150 92 1151 96L1217 372C1224 401 1228 429 1228 446C1228 469 1217 482 1197 482C1155 482 1086 444 1027 389C989 354 961 320 909 247L947 408C951 426 953 438 953 449C953 470 945 482 930 482C909 482 870 460 797 408ZM1575 482C1508 482 1355 419 1355 259C1355 182 1400 136 1477 136C1485 136 1496 136 1507 137L1466 99C1450 84 1439 66 1439 52C1439 42 1446 31 1460 19C1391 -4 1263 -48 1263 -159C1263 -230 1333 -276 1442 -276C1571 -276 1684 -204 1684 -121C1684 -85 1663 -49 1620 -14L1560 35C1526 62 1513 81 1513 100C1513 114 1528 128 1540 146C1638 170 1709 253 1709 342C1709 357 1706 376 1705 380C1722 378 1730 378 1739 378C1756 378 1766 379 1789 382L1798 427L1795 433C1767 426 1747 424 1693 424C1693 425 1669 482 1575 482ZM1476 1L1553 -58C1599 -94 1618 -121 1618 -154C1618 -206 1549 -248 1466 -248C1384 -248 1327 -206 1327 -145C1327 -43 1437 -11 1476 1ZM1550 448C1608 448 1637 412 1637 341C1637 238 1589 168 1519 168C1458 168 1426 209 1426 288C1426 383 1477 448 1550 448Z" stroke="rgb(0, 0, 0)" stroke-width="8" fill="rgb(0, 0, 0)" style="transform:matrix(0.0119,0,0,-0.0119,0,0);"></path></g></g></g></g></g></g></g></g></g><g><g><g><g><g><g style="transform:matrix(1,0,0,1,85.34375,213.1640625);"><path d="M413 469L254 104C251 113 166 397 166 405C166 420 179 428 204 429L244 431L244 459C145 456 145 456 125 456C105 456 105 456 6 459L6 431L34 429C62 427 75 407 100 329L202 -7L249 -7L399 335L535 -7L581 -7L718 342C748 409 760 426 782 429L808 431L808 459C726 456 726 456 710 456C694 456 694 456 612 459L612 431L646 429C671 428 685 416 685 398L580 98L465 388C451 422 444 442 436 469Z" stroke="rgb(0, 0, 0)" stroke-width="24" fill="rgb(0, 0, 0)" style="transform:matrix(0.017,0,0,-0.017,0,0);"></path></g><g><g><g><g style="transform:matrix(1,0,0,1,99.5,215.5484375);"><path d="M730 103L704 86C675 67 653 56 643 56C636 56 630 65 630 76C630 86 632 95 637 116L712 413C716 430 719 446 719 454C719 471 709 482 693 482C664 482 626 464 565 421C502 376 467 341 418 272L448 409C452 429 455 444 455 451C455 470 445 482 429 482C399 482 353 460 298 418C254 384 234 363 169 275L202 408C206 424 208 439 208 451C208 470 199 482 185 482C164 482 126 461 52 408L24 388L31 368C68 391 103 414 110 414C121 414 128 404 128 389C128 338 87 145 46 2L49 -9L117 6L139 108C163 219 190 278 245 338C287 384 332 414 360 414C367 414 371 406 371 393C371 358 349 244 308 69L292 2L297 -9L366 6L387 113C403 194 437 269 481 318C536 379 586 414 618 414C626 414 631 405 631 389C631 365 628 351 606 264C566 105 550 84 550 31C550 6 561 -9 580 -9C606 -9 642 12 740 85ZM1048 204L1019 77C1015 60 1013 42 1013 26C1013 4 1022 -9 1037 -9C1060 -9 1101 17 1183 85L1176 106C1152 86 1123 59 1101 59C1092 59 1086 68 1086 82C1086 87 1086 90 1087 93L1179 472L1169 481L1136 463C1095 478 1078 482 1051 482C1023 482 1003 477 976 464C914 433 881 403 856 354C812 265 781 145 781 67C781 23 796 -11 815 -11C852 -11 932 41 1048 204ZM1096 414C1074 305 1055 253 1021 201C964 117 903 59 871 59C859 59 853 72 853 99C853 163 881 280 916 360C940 415 963 433 1011 433C1034 433 1052 429 1096 414ZM1244 388L1251 368L1283 389C1320 412 1323 414 1330 414C1341 414 1348 404 1348 389C1348 338 1307 145 1266 2L1273 -9C1298 -2 1321 4 1343 8C1362 134 1383 199 1429 268C1483 352 1558 414 1603 414C1614 414 1620 405 1620 390C1620 372 1617 351 1609 319L1557 107C1548 70 1544 47 1544 31C1544 6 1555 -9 1574 -9C1600 -9 1636 12 1734 85L1724 103L1698 86C1669 67 1647 56 1637 56C1630 56 1624 65 1624 76C1624 81 1625 92 1626 96L1692 372C1699 401 1703 429 1703 446C1703 469 1692 482 1672 482C1630 482 1561 444 1502 389C1464 354 1436 320 1384 247L1422 408C1426 426 1428 438 1428 449C1428 470 1420 482 1405 482C1384 482 1345 460 1272 408Z" stroke="rgb(0, 0, 0)" stroke-width="8" fill="rgb(0, 0, 0)" style="transform:matrix(0.0119,0,0,-0.0119,0,0);"></path></g></g></g></g></g></g></g></g></g><g><g><g><g><g><g style="transform:matrix(1,0,0,1,333.171875,195.8359375);"><path d="M413 469L254 104C251 113 166 397 166 405C166 420 179 428 204 429L244 431L244 459C145 456 145 456 125 456C105 456 105 456 6 459L6 431L34 429C62 427 75 407 100 329L202 -7L249 -7L399 335L535 -7L581 -7L718 342C748 409 760 426 782 429L808 431L808 459C726 456 726 456 710 456C694 456 694 456 612 459L612 431L646 429C671 428 685 416 685 398L580 98L465 388C451 422 444 442 436 469Z" stroke="rgb(208, 2, 27)" stroke-width="24" fill="rgb(208, 2, 27)" style="transform:matrix(0.017,0,0,-0.017,0,0);"></path></g><g><g><g><g style="transform:matrix(1,0,0,1,347.328125,198.2203125);"><path d="M167 420C188 420 201 421 226 424C171 350 72 266 72 126C72 44 107 -11 160 -11C224 -11 276 44 350 187C341 143 338 118 338 95C338 32 367 -11 412 -11C546 -11 699 238 699 384C699 441 673 482 637 482C624 482 612 478 604 470L554 423L565 404C574 410 583 413 592 413C619 413 635 390 635 350C635 205 538 39 453 39C424 39 403 79 403 134C403 181 412 247 424 290L476 474L469 482L395 460L366 311C354 249 340 209 311 155C271 80 233 39 203 39C168 39 145 78 145 136C145 255 186 352 285 464L275 482C255 473 242 470 214 470C186 470 144 472 115 475L103 476C97 477 92 477 91 477C79 477 70 475 59 470C45 443 34 407 21 352L43 352L60 394C67 411 87 422 111 422C145 422 128 420 167 420ZM738 152C738 46 783 -11 866 -11C921 -11 981 15 1026 57C1088 116 1132 230 1132 331C1132 425 1082 482 999 482C895 482 738 382 738 152ZM962 444C1023 444 1056 399 1056 315C1056 219 1025 113 981 60C963 39 937 27 906 27C848 27 814 72 814 151C814 264 853 387 902 427C915 438 938 444 962 444ZM1894 103L1868 86C1839 67 1817 56 1807 56C1800 56 1794 65 1794 76C1794 86 1796 95 1801 116L1876 413C1880 430 1883 446 1883 454C1883 471 1873 482 1857 482C1828 482 1790 464 1729 421C1666 376 1631 341 1582 272L1612 409C1616 429 1619 444 1619 451C1619 470 1609 482 1593 482C1563 482 1517 460 1462 418C1418 384 1398 363 1333 275L1366 408C1370 424 1372 439 1372 451C1372 470 1363 482 1349 482C1328 482 1290 461 1216 408L1188 388L1195 368C1232 391 1267 414 1274 414C1285 414 1292 404 1292 389C1292 338 1251 145 1210 2L1213 -9L1281 6L1303 108C1327 219 1354 278 1409 338C1451 384 1496 414 1524 414C1531 414 1535 406 1535 393C1535 358 1513 244 1472 69L1456 2L1461 -9L1530 6L1551 113C1567 194 1601 269 1645 318C1700 379 1750 414 1782 414C1790 414 1795 405 1795 389C1795 365 1792 351 1770 264C1730 105 1714 84 1714 31C1714 6 1725 -9 1744 -9C1770 -9 1806 12 1904 85ZM2212 204L2183 77C2179 60 2177 42 2177 26C2177 4 2186 -9 2201 -9C2224 -9 2265 17 2347 85L2340 106C2316 86 2287 59 2265 59C2256 59 2250 68 2250 82C2250 87 2250 90 2251 93L2343 472L2333 481L2300 463C2259 478 2242 482 2215 482C2187 482 2167 477 2140 464C2078 433 2045 403 2020 354C1976 265 1945 145 1945 67C1945 23 1960 -11 1979 -11C2016 -11 2096 41 2212 204ZM2260 414C2238 305 2219 253 2185 201C2128 117 2067 59 2035 59C2023 59 2017 72 2017 99C2017 163 2045 280 2080 360C2104 415 2127 433 2175 433C2198 433 2216 429 2260 414ZM2408 388L2415 368L2447 389C2484 412 2487 414 2494 414C2505 414 2512 404 2512 389C2512 338 2471 145 2430 2L2437 -9C2462 -2 2485 4 2507 8C2526 134 2547 199 2593 268C2647 352 2722 414 2767 414C2778 414 2784 405 2784 390C2784 372 2781 351 2773 319L2721 107C2712 70 2708 47 2708 31C2708 6 2719 -9 2738 -9C2764 -9 2800 12 2898 85L2888 103L2862 86C2833 67 2811 56 2801 56C2794 56 2788 65 2788 76C2788 81 2789 92 2790 96L2856 372C2863 401 2867 429 2867 446C2867 469 2856 482 2836 482C2794 482 2725 444 2666 389C2628 354 2600 320 2548 247L2586 408C2590 426 2592 438 2592 449C2592 470 2584 482 2569 482C2548 482 2509 460 2436 408Z" stroke="rgb(208, 2, 27)" stroke-width="8" fill="rgb(208, 2, 27)" style="transform:matrix(0.0119,0,0,-0.0119,0,0);"></path></g></g></g></g></g></g></g></g></g><g><g><g><g><g><g style="transform:matrix(1,0,0,1,39.15625,97.2734375);"><path d="M413 469L254 104C251 113 166 397 166 405C166 420 179 428 204 429L244 431L244 459C145 456 145 456 125 456C105 456 105 456 6 459L6 431L34 429C62 427 75 407 100 329L202 -7L249 -7L399 335L535 -7L581 -7L718 342C748 409 760 426 782 429L808 431L808 459C726 456 726 456 710 456C694 456 694 456 612 459L612 431L646 429C671 428 685 416 685 398L580 98L465 388C451 422 444 442 436 469Z" stroke="rgb(74, 144, 226)" stroke-width="24" fill="rgb(74, 144, 226)" style="transform:matrix(0.017,0,0,-0.017,0,0);"></path></g><g><g><g><g style="transform:matrix(1,0,0,1,53.3125,102.6578125);"><path d="M240 722L228 733C176 707 140 698 68 691L64 670L112 670C136 670 146 663 146 646C146 638 145 629 144 622L96 354C82 279 66 210 14 1L23 -9L90 8L113 132C122 180 146 225 180 259C249 59 281 -9 306 -9C319 -9 343 4 387 35L433 67L425 86L382 62C368 54 361 52 353 52C343 52 336 58 327 75C292 139 270 193 231 316L245 330C306 391 352 416 402 416C410 416 421 414 438 410L455 473C437 479 419 482 407 482C341 482 258 405 133 230ZM502 388L509 368L541 389C578 412 581 414 588 414C598 414 606 404 606 391C606 384 602 361 598 347L532 107C524 76 519 49 519 30C519 6 530 -9 549 -9C575 -9 611 12 709 85L699 103L673 86C644 67 621 56 612 56C605 56 599 66 599 76C599 86 601 95 606 116L683 420C687 437 689 448 689 456C689 473 680 482 664 482C642 482 605 461 530 408ZM696 712C667 712 638 679 638 645C638 620 653 604 677 604C708 604 732 633 732 671C732 695 717 712 696 712ZM769 388L776 368L808 389C845 412 848 414 855 414C866 414 873 404 873 389C873 338 832 145 791 2L798 -9C823 -2 846 4 868 8C887 134 908 199 954 268C1008 352 1083 414 1128 414C1139 414 1145 405 1145 390C1145 372 1142 351 1134 319L1082 107C1073 70 1069 47 1069 31C1069 6 1080 -9 1099 -9C1125 -9 1161 12 1259 85L1249 103L1223 86C1194 67 1172 56 1162 56C1155 56 1149 65 1149 76C1149 81 1150 92 1151 96L1217 372C1224 401 1228 429 1228 446C1228 469 1217 482 1197 482C1155 482 1086 444 1027 389C989 354 961 320 909 247L947 408C951 426 953 438 953 449C953 470 945 482 930 482C909 482 870 460 797 408ZM1575 482C1508 482 1355 419 1355 259C1355 182 1400 136 1477 136C1485 136 1496 136 1507 137L1466 99C1450 84 1439 66 1439 52C1439 42 1446 31 1460 19C1391 -4 1263 -48 1263 -159C1263 -230 1333 -276 1442 -276C1571 -276 1684 -204 1684 -121C1684 -85 1663 -49 1620 -14L1560 35C1526 62 1513 81 1513 100C1513 114 1528 128 1540 146C1638 170 1709 253 1709 342C1709 357 1706 376 1705 380C1722 378 1730 378 1739 378C1756 378 1766 379 1789 382L1798 427L1795 433C1767 426 1747 424 1693 424C1693 425 1669 482 1575 482ZM1476 1L1553 -58C1599 -94 1618 -121 1618 -154C1618 -206 1549 -248 1466 -248C1384 -248 1327 -206 1327 -145C1327 -43 1437 -11 1476 1ZM1550 448C1608 448 1637 412 1637 341C1637 238 1589 168 1519 168C1458 168 1426 209 1426 288C1426 383 1477 448 1550 448Z" stroke="rgb(74, 144, 226)" stroke-width="8" fill="rgb(74, 144, 226)" style="transform:matrix(0.0119,0,0,-0.0119,0,0);"></path></g></g></g></g><g style="transform:matrix(1,0,0,1,77.71875,97.2734375);"><path d="M555 243L555 299L51 299L51 243Z" stroke="rgb(74, 144, 226)" stroke-width="8" fill="rgb(74, 144, 226)" style="transform:matrix(0.017,0,0,-0.017,0,0);"></path></g><g style="transform:matrix(1,0,0,1,91,97.2734375);"><path d="M413 469L254 104C251 113 166 397 166 405C166 420 179 428 204 429L244 431L244 459C145 456 145 456 125 456C105 456 105 456 6 459L6 431L34 429C62 427 75 407 100 329L202 -7L249 -7L399 335L535 -7L581 -7L718 342C748 409 760 426 782 429L808 431L808 459C726 456 726 456 710 456C694 456 694 456 612 459L612 431L646 429C671 428 685 416 685 398L580 98L465 388C451 422 444 442 436 469Z" stroke="rgb(74, 144, 226)" stroke-width="24" fill="rgb(74, 144, 226)" style="transform:matrix(0.017,0,0,-0.017,0,0);"></path></g><g><g><g><g style="transform:matrix(1,0,0,1,105.15625,99.6578125);"><path d="M730 103L704 86C675 67 653 56 643 56C636 56 630 65 630 76C630 86 632 95 637 116L712 413C716 430 719 446 719 454C719 471 709 482 693 482C664 482 626 464 565 421C502 376 467 341 418 272L448 409C452 429 455 444 455 451C455 470 445 482 429 482C399 482 353 460 298 418C254 384 234 363 169 275L202 408C206 424 208 439 208 451C208 470 199 482 185 482C164 482 126 461 52 408L24 388L31 368C68 391 103 414 110 414C121 414 128 404 128 389C128 338 87 145 46 2L49 -9L117 6L139 108C163 219 190 278 245 338C287 384 332 414 360 414C367 414 371 406 371 393C371 358 349 244 308 69L292 2L297 -9L366 6L387 113C403 194 437 269 481 318C536 379 586 414 618 414C626 414 631 405 631 389C631 365 628 351 606 264C566 105 550 84 550 31C550 6 561 -9 580 -9C606 -9 642 12 740 85ZM1048 204L1019 77C1015 60 1013 42 1013 26C1013 4 1022 -9 1037 -9C1060 -9 1101 17 1183 85L1176 106C1152 86 1123 59 1101 59C1092 59 1086 68 1086 82C1086 87 1086 90 1087 93L1179 472L1169 481L1136 463C1095 478 1078 482 1051 482C1023 482 1003 477 976 464C914 433 881 403 856 354C812 265 781 145 781 67C781 23 796 -11 815 -11C852 -11 932 41 1048 204ZM1096 414C1074 305 1055 253 1021 201C964 117 903 59 871 59C859 59 853 72 853 99C853 163 881 280 916 360C940 415 963 433 1011 433C1034 433 1052 429 1096 414ZM1244 388L1251 368L1283 389C1320 412 1323 414 1330 414C1341 414 1348 404 1348 389C1348 338 1307 145 1266 2L1273 -9C1298 -2 1321 4 1343 8C1362 134 1383 199 1429 268C1483 352 1558 414 1603 414C1614 414 1620 405 1620 390C1620 372 1617 351 1609 319L1557 107C1548 70 1544 47 1544 31C1544 6 1555 -9 1574 -9C1600 -9 1636 12 1734 85L1724 103L1698 86C1669 67 1647 56 1637 56C1630 56 1624 65 1624 76C1624 81 1625 92 1626 96L1692 372C1699 401 1703 429 1703 446C1703 469 1692 482 1672 482C1630 482 1561 444 1502 389C1464 354 1436 320 1384 247L1422 408C1426 426 1428 438 1428 449C1428 470 1420 482 1405 482C1384 482 1345 460 1272 408Z" stroke="rgb(74, 144, 226)" stroke-width="8" fill="rgb(74, 144, 226)" style="transform:matrix(0.0119,0,0,-0.0119,0,0);"></path></g></g></g></g></g></g></g></g></g><g><g><g><g><g><g style="transform:matrix(1,0,0,1,434.9375,33.0625);"><path d="M413 469L254 104C251 113 166 397 166 405C166 420 179 428 204 429L244 431L244 459C145 456 145 456 125 456C105 456 105 456 6 459L6 431L34 429C62 427 75 407 100 329L202 -7L249 -7L399 335L535 -7L581 -7L718 342C748 409 760 426 782 429L808 431L808 459C726 456 726 456 710 456C694 456 694 456 612 459L612 431L646 429C671 428 685 416 685 398L580 98L465 388C451 422 444 442 436 469Z" stroke="rgb(0, 0, 0)" stroke-width="24" fill="rgb(0, 0, 0)" style="transform:matrix(0.017,0,0,-0.017,0,0);"></path></g><g><g><g><g style="transform:matrix(1,0,0,1,449.09375,35.446875);"><path d="M385 458C342 475 313 482 284 482C209 482 121 394 103 374C63 327 24 181 24 78C24 19 36 -11 60 -11C82 -11 101 -3 133 19C180 51 259 121 308 209L232 -205C227 -229 217 -249 205 -262L214 -276C245 -268 276 -262 300 -259C304 -205 310 -150 319 -100L405 356C416 417 422 443 432 474L418 480ZM118 59C104 59 96 80 96 113C96 209 139 359 181 409C193 424 222 433 254 433C282 433 303 427 351 406L330 311C301 174 160 59 118 59ZM954 473L947 482L879 465L869 414C854 336 829 268 798 221C739 130 661 59 621 59C613 59 608 68 608 85C608 99 610 112 615 137L672 408C675 424 677 438 677 451C677 470 668 482 654 482C634 482 596 461 522 408L494 388L501 368L533 389C561 407 572 412 581 412C590 412 598 403 598 392C598 388 597 378 596 374L533 77C531 68 529 44 529 30C529 7 544 -11 564 -11C627 -11 748 101 832 239L795 97C788 73 784 46 784 31C784 6 795 -9 814 -9C840 -9 876 12 974 85L964 103L938 86C914 70 888 59 877 59C869 59 864 66 864 76C864 112 939 416 954 473ZM1345 111L1321 94C1268 56 1220 36 1184 36C1137 36 1108 73 1108 133C1108 158 1111 185 1116 214C1133 218 1242 248 1267 259C1352 296 1391 342 1391 404C1391 451 1357 482 1307 482C1239 496 1129 423 1092 349C1062 299 1032 180 1032 113C1032 35 1076 -11 1148 -11C1205 -11 1261 17 1353 92ZM1130 274C1147 343 1167 386 1196 412C1214 428 1245 440 1269 440C1298 440 1317 420 1317 388C1317 344 1282 297 1230 272C1202 258 1166 247 1121 237ZM1733 111L1709 94C1656 56 1608 36 1572 36C1525 36 1496 73 1496 133C1496 158 1499 185 1504 214C1521 218 1630 248 1655 259C1740 296 1779 342 1779 404C1779 451 1745 482 1695 482C1627 496 1517 423 1480 349C1450 299 1420 180 1420 113C1420 35 1464 -11 1536 -11C1593 -11 1649 17 1741 92ZM1518 274C1535 343 1555 386 1584 412C1602 428 1633 440 1657 440C1686 440 1705 420 1705 388C1705 344 1670 297 1618 272C1590 258 1554 247 1509 237ZM1817 388L1824 368L1856 389C1893 412 1896 414 1903 414C1914 414 1921 404 1921 389C1921 338 1880 145 1839 2L1846 -9C1871 -2 1894 4 1916 8C1935 134 1956 199 2002 268C2056 352 2131 414 2176 414C2187 414 2193 405 2193 390C2193 372 2190 351 2182 319L2130 107C2121 70 2117 47 2117 31C2117 6 2128 -9 2147 -9C2173 -9 2209 12 2307 85L2297 103L2271 86C2242 67 2220 56 2210 56C2203 56 2197 65 2197 76C2197 81 2198 92 2199 96L2265 372C2272 401 2276 429 2276 446C2276 469 2265 482 2245 482C2203 482 2134 444 2075 389C2037 354 2009 320 1957 247L1995 408C1999 426 2001 438 2001 449C2001 470 1993 482 1978 482C1957 482 1918 460 1845 408Z" stroke="rgb(0, 0, 0)" stroke-width="8" fill="rgb(0, 0, 0)" style="transform:matrix(0.0119,0,0,-0.0119,0,0);"></path></g></g></g></g></g><g><g style="transform:matrix(1,0,0,1,434.9375,54.546875);"><path d="" stroke="rgb(0, 0, 0)" stroke-width="8" fill="rgb(0, 0, 0)" style="transform:matrix(0.017,0,0,-0.017,0,0);"></path></g><g style="transform:matrix(1,0,0,1,469.5625,54.546875);"><path d="M614 448L572 465C555 412 526 362 464 362C396 362 323 462 229 462C136 462 83 411 56 323L98 307C121 357 154 392 211 392C280 392 345 293 444 293C545 293 597 352 614 448ZM614 234L572 252C555 198 526 148 464 148C396 148 323 248 229 248C136 248 83 197 56 109L98 94C121 143 154 178 211 178C280 178 345 79 444 79C545 79 597 138 614 235Z" stroke="rgb(0, 0, 0)" stroke-width="8" fill="rgb(0, 0, 0)" style="transform:matrix(0.017,0,0,-0.017,0,0);"></path></g><g style="transform:matrix(1,0,0,1,485.90625,54.546875);"><path d="M413 469L254 104C251 113 166 397 166 405C166 420 179 428 204 429L244 431L244 459C145 456 145 456 125 456C105 456 105 456 6 459L6 431L34 429C62 427 75 407 100 329L202 -7L249 -7L399 335L535 -7L581 -7L718 342C748 409 760 426 782 429L808 431L808 459C726 456 726 456 710 456C694 456 694 456 612 459L612 431L646 429C671 428 685 416 685 398L580 98L465 388C451 422 444 442 436 469Z" stroke="rgb(74, 144, 226)" stroke-width="24" fill="rgb(74, 144, 226)" style="transform:matrix(0.017,0,0,-0.017,0,0);"></path></g><g><g><g><g style="transform:matrix(1,0,0,1,500.0625,59.93125);"><path d="M240 722L228 733C176 707 140 698 68 691L64 670L112 670C136 670 146 663 146 646C146 638 145 629 144 622L96 354C82 279 66 210 14 1L23 -9L90 8L113 132C122 180 146 225 180 259C249 59 281 -9 306 -9C319 -9 343 4 387 35L433 67L425 86L382 62C368 54 361 52 353 52C343 52 336 58 327 75C292 139 270 193 231 316L245 330C306 391 352 416 402 416C410 416 421 414 438 410L455 473C437 479 419 482 407 482C341 482 258 405 133 230ZM502 388L509 368L541 389C578 412 581 414 588 414C598 414 606 404 606 391C606 384 602 361 598 347L532 107C524 76 519 49 519 30C519 6 530 -9 549 -9C575 -9 611 12 709 85L699 103L673 86C644 67 621 56 612 56C605 56 599 66 599 76C599 86 601 95 606 116L683 420C687 437 689 448 689 456C689 473 680 482 664 482C642 482 605 461 530 408ZM696 712C667 712 638 679 638 645C638 620 653 604 677 604C708 604 732 633 732 671C732 695 717 712 696 712ZM769 388L776 368L808 389C845 412 848 414 855 414C866 414 873 404 873 389C873 338 832 145 791 2L798 -9C823 -2 846 4 868 8C887 134 908 199 954 268C1008 352 1083 414 1128 414C1139 414 1145 405 1145 390C1145 372 1142 351 1134 319L1082 107C1073 70 1069 47 1069 31C1069 6 1080 -9 1099 -9C1125 -9 1161 12 1259 85L1249 103L1223 86C1194 67 1172 56 1162 56C1155 56 1149 65 1149 76C1149 81 1150 92 1151 96L1217 372C1224 401 1228 429 1228 446C1228 469 1217 482 1197 482C1155 482 1086 444 1027 389C989 354 961 320 909 247L947 408C951 426 953 438 953 449C953 470 945 482 930 482C909 482 870 460 797 408ZM1575 482C1508 482 1355 419 1355 259C1355 182 1400 136 1477 136C1485 136 1496 136 1507 137L1466 99C1450 84 1439 66 1439 52C1439 42 1446 31 1460 19C1391 -4 1263 -48 1263 -159C1263 -230 1333 -276 1442 -276C1571 -276 1684 -204 1684 -121C1684 -85 1663 -49 1620 -14L1560 35C1526 62 1513 81 1513 100C1513 114 1528 128 1540 146C1638 170 1709 253 1709 342C1709 357 1706 376 1705 380C1722 378 1730 378 1739 378C1756 378 1766 379 1789 382L1798 427L1795 433C1767 426 1747 424 1693 424C1693 425 1669 482 1575 482ZM1476 1L1553 -58C1599 -94 1618 -121 1618 -154C1618 -206 1549 -248 1466 -248C1384 -248 1327 -206 1327 -145C1327 -43 1437 -11 1476 1ZM1550 448C1608 448 1637 412 1637 341C1637 238 1589 168 1519 168C1458 168 1426 209 1426 288C1426 383 1477 448 1550 448Z" stroke="rgb(74, 144, 226)" stroke-width="8" fill="rgb(74, 144, 226)" style="transform:matrix(0.0119,0,0,-0.0119,0,0);"></path></g></g></g></g><g style="transform:matrix(1,0,0,1,524.46875,54.546875);"><path d="M555 243L555 299L51 299L51 243Z" stroke="rgb(74, 144, 226)" stroke-width="8" fill="rgb(74, 144, 226)" style="transform:matrix(0.017,0,0,-0.017,0,0);"></path></g><g style="transform:matrix(1,0,0,1,537.75,54.546875);"><path d="M413 469L254 104C251 113 166 397 166 405C166 420 179 428 204 429L244 431L244 459C145 456 145 456 125 456C105 456 105 456 6 459L6 431L34 429C62 427 75 407 100 329L202 -7L249 -7L399 335L535 -7L581 -7L718 342C748 409 760 426 782 429L808 431L808 459C726 456 726 456 710 456C694 456 694 456 612 459L612 431L646 429C671 428 685 416 685 398L580 98L465 388C451 422 444 442 436 469Z" stroke="rgb(74, 144, 226)" stroke-width="24" fill="rgb(74, 144, 226)" style="transform:matrix(0.017,0,0,-0.017,0,0);"></path></g><g><g><g><g style="transform:matrix(1,0,0,1,551.90625,56.93125);"><path d="M730 103L704 86C675 67 653 56 643 56C636 56 630 65 630 76C630 86 632 95 637 116L712 413C716 430 719 446 719 454C719 471 709 482 693 482C664 482 626 464 565 421C502 376 467 341 418 272L448 409C452 429 455 444 455 451C455 470 445 482 429 482C399 482 353 460 298 418C254 384 234 363 169 275L202 408C206 424 208 439 208 451C208 470 199 482 185 482C164 482 126 461 52 408L24 388L31 368C68 391 103 414 110 414C121 414 128 404 128 389C128 338 87 145 46 2L49 -9L117 6L139 108C163 219 190 278 245 338C287 384 332 414 360 414C367 414 371 406 371 393C371 358 349 244 308 69L292 2L297 -9L366 6L387 113C403 194 437 269 481 318C536 379 586 414 618 414C626 414 631 405 631 389C631 365 628 351 606 264C566 105 550 84 550 31C550 6 561 -9 580 -9C606 -9 642 12 740 85ZM1048 204L1019 77C1015 60 1013 42 1013 26C1013 4 1022 -9 1037 -9C1060 -9 1101 17 1183 85L1176 106C1152 86 1123 59 1101 59C1092 59 1086 68 1086 82C1086 87 1086 90 1087 93L1179 472L1169 481L1136 463C1095 478 1078 482 1051 482C1023 482 1003 477 976 464C914 433 881 403 856 354C812 265 781 145 781 67C781 23 796 -11 815 -11C852 -11 932 41 1048 204ZM1096 414C1074 305 1055 253 1021 201C964 117 903 59 871 59C859 59 853 72 853 99C853 163 881 280 916 360C940 415 963 433 1011 433C1034 433 1052 429 1096 414ZM1244 388L1251 368L1283 389C1320 412 1323 414 1330 414C1341 414 1348 404 1348 389C1348 338 1307 145 1266 2L1273 -9C1298 -2 1321 4 1343 8C1362 134 1383 199 1429 268C1483 352 1558 414 1603 414C1614 414 1620 405 1620 390C1620 372 1617 351 1609 319L1557 107C1548 70 1544 47 1544 31C1544 6 1555 -9 1574 -9C1600 -9 1636 12 1734 85L1724 103L1698 86C1669 67 1647 56 1637 56C1630 56 1624 65 1624 76C1624 81 1625 92 1626 96L1692 372C1699 401 1703 429 1703 446C1703 469 1692 482 1672 482C1630 482 1561 444 1502 389C1464 354 1436 320 1384 247L1422 408C1426 426 1428 438 1428 449C1428 470 1420 482 1405 482C1384 482 1345 460 1272 408Z" stroke="rgb(74, 144, 226)" stroke-width="8" fill="rgb(74, 144, 226)" style="transform:matrix(0.0119,0,0,-0.0119,0,0);"></path></g></g></g></g><g style="transform:matrix(1,0,0,1,573.015625,54.546875);"><path d="" stroke="rgb(208, 2, 27)" stroke-width="8" fill="rgb(208, 2, 27)" style="transform:matrix(0.017,0,0,-0.017,0,0);"></path></g><g style="transform:matrix(1,0,0,1,580.234375,54.546875);"><path d="M604 241L604 300L364 300L364 538L305 538L305 300L65 300L65 241L305 241L305 0L364 0L364 241Z" stroke="rgb(0, 0, 0)" stroke-width="8" fill="rgb(0, 0, 0)" style="transform:matrix(0.017,0,0,-0.017,0,0);"></path></g><g style="transform:matrix(1,0,0,1,594.578125,54.546875);"><path d="M413 469L254 104C251 113 166 397 166 405C166 420 179 428 204 429L244 431L244 459C145 456 145 456 125 456C105 456 105 456 6 459L6 431L34 429C62 427 75 407 100 329L202 -7L249 -7L399 335L535 -7L581 -7L718 342C748 409 760 426 782 429L808 431L808 459C726 456 726 456 710 456C694 456 694 456 612 459L612 431L646 429C671 428 685 416 685 398L580 98L465 388C451 422 444 442 436 469Z" stroke="rgb(208, 2, 27)" stroke-width="24" fill="rgb(208, 2, 27)" style="transform:matrix(0.017,0,0,-0.017,0,0);"></path></g><g><g><g><g style="transform:matrix(1,0,0,1,608.734375,56.93125);"><path d="M167 420C188 420 201 421 226 424C171 350 72 266 72 126C72 44 107 -11 160 -11C224 -11 276 44 350 187C341 143 338 118 338 95C338 32 367 -11 412 -11C546 -11 699 238 699 384C699 441 673 482 637 482C624 482 612 478 604 470L554 423L565 404C574 410 583 413 592 413C619 413 635 390 635 350C635 205 538 39 453 39C424 39 403 79 403 134C403 181 412 247 424 290L476 474L469 482L395 460L366 311C354 249 340 209 311 155C271 80 233 39 203 39C168 39 145 78 145 136C145 255 186 352 285 464L275 482C255 473 242 470 214 470C186 470 144 472 115 475L103 476C97 477 92 477 91 477C79 477 70 475 59 470C45 443 34 407 21 352L43 352L60 394C67 411 87 422 111 422C145 422 128 420 167 420ZM738 152C738 46 783 -11 866 -11C921 -11 981 15 1026 57C1088 116 1132 230 1132 331C1132 425 1082 482 999 482C895 482 738 382 738 152ZM962 444C1023 444 1056 399 1056 315C1056 219 1025 113 981 60C963 39 937 27 906 27C848 27 814 72 814 151C814 264 853 387 902 427C915 438 938 444 962 444ZM1894 103L1868 86C1839 67 1817 56 1807 56C1800 56 1794 65 1794 76C1794 86 1796 95 1801 116L1876 413C1880 430 1883 446 1883 454C1883 471 1873 482 1857 482C1828 482 1790 464 1729 421C1666 376 1631 341 1582 272L1612 409C1616 429 1619 444 1619 451C1619 470 1609 482 1593 482C1563 482 1517 460 1462 418C1418 384 1398 363 1333 275L1366 408C1370 424 1372 439 1372 451C1372 470 1363 482 1349 482C1328 482 1290 461 1216 408L1188 388L1195 368C1232 391 1267 414 1274 414C1285 414 1292 404 1292 389C1292 338 1251 145 1210 2L1213 -9L1281 6L1303 108C1327 219 1354 278 1409 338C1451 384 1496 414 1524 414C1531 414 1535 406 1535 393C1535 358 1513 244 1472 69L1456 2L1461 -9L1530 6L1551 113C1567 194 1601 269 1645 318C1700 379 1750 414 1782 414C1790 414 1795 405 1795 389C1795 365 1792 351 1770 264C1730 105 1714 84 1714 31C1714 6 1725 -9 1744 -9C1770 -9 1806 12 1904 85ZM2212 204L2183 77C2179 60 2177 42 2177 26C2177 4 2186 -9 2201 -9C2224 -9 2265 17 2347 85L2340 106C2316 86 2287 59 2265 59C2256 59 2250 68 2250 82C2250 87 2250 90 2251 93L2343 472L2333 481L2300 463C2259 478 2242 482 2215 482C2187 482 2167 477 2140 464C2078 433 2045 403 2020 354C1976 265 1945 145 1945 67C1945 23 1960 -11 1979 -11C2016 -11 2096 41 2212 204ZM2260 414C2238 305 2219 253 2185 201C2128 117 2067 59 2035 59C2023 59 2017 72 2017 99C2017 163 2045 280 2080 360C2104 415 2127 433 2175 433C2198 433 2216 429 2260 414ZM2408 388L2415 368L2447 389C2484 412 2487 414 2494 414C2505 414 2512 404 2512 389C2512 338 2471 145 2430 2L2437 -9C2462 -2 2485 4 2507 8C2526 134 2547 199 2593 268C2647 352 2722 414 2767 414C2778 414 2784 405 2784 390C2784 372 2781 351 2773 319L2721 107C2712 70 2708 47 2708 31C2708 6 2719 -9 2738 -9C2764 -9 2800 12 2898 85L2888 103L2862 86C2833 67 2811 56 2801 56C2794 56 2788 65 2788 76C2788 81 2789 92 2790 96L2856 372C2863 401 2867 429 2867 446C2867 469 2856 482 2836 482C2794 482 2725 444 2666 389C2628 354 2600 320 2548 247L2586 408C2590 426 2592 438 2592 449C2592 470 2584 482 2569 482C2548 482 2509 460 2436 408Z" stroke="rgb(208, 2, 27)" stroke-width="8" fill="rgb(208, 2, 27)" style="transform:matrix(0.0119,0,0,-0.0119,0,0);"></path></g></g></g></g></g></g></g></g></g></svg>
</svg>
